<svg width="154" height="103" viewBox="0 0 154 103" fill="none" xmlns="http://www.w3.org/2000/svg">
<path d="M136.267 40.4004L132.885 40.9179C132.885 40.9179 135.015 47.5735 133.284 53.3654C133.7 53.3279 134.625 53.3555 135.444 54.1488C136.381 51.8556 137.801 46.916 136.267 40.4004Z" fill="#EC9B66"/>
<path d="M77 88.5531C113.505 88.5531 143.099 87.515 143.099 86.2345C143.099 84.9541 113.505 83.916 77 83.916C40.4946 83.916 10.9012 84.9541 10.9012 86.2345C10.9012 87.515 40.4946 88.5531 77 88.5531Z" fill="#AAC1F7"/>
<path d="M17.6227 77.3993C17.6227 77.3993 28.3609 80.1049 36.1662 77.582L30.8086 58.7029L22.8 58.4712L17.6227 77.3993Z" fill="#E2E2E2"/>
<path d="M29.1927 54.0467L28.2968 53.6895L28.3582 55.6308L29.1841 55.1539C29.1939 54.4506 29.1927 54.0467 29.1927 54.0467Z" fill="#5D97B7"/>
<path d="M33.1831 67.1647C33.1831 67.1647 33.1841 67.009 33.2104 66.7284C34.1223 56.9795 32.8876 52.4397 31.8166 47.4062L31.1979 47.6098L28.536 47.9132C28.536 47.9132 26.7018 49.9374 26.7556 52.2773C26.7652 52.6992 26.8494 53.468 26.9804 54.4436L28.0145 53.577L28.297 53.6897L28.296 53.6559C28.296 53.6559 29.028 53.338 29.4647 52.8803C29.4647 52.8803 29.4746 53.8856 29.1931 55.149L29.1842 55.1539C29.1586 56.9739 29.0571 60.8033 28.6621 64.8571C28.9471 66.4911 29.1477 67.606 29.1477 67.606C29.1477 67.606 28.6834 69.7725 28.8506 71.636C29.0177 73.4994 31.2427 83.8969 31.2427 83.8969C31.2427 83.8969 31.8542 84.3151 33.2521 83.776C33.2515 83.776 33.6342 73.2024 33.1831 67.1647Z" fill="#003862"/>
<path d="M29.4643 52.8804C29.0275 53.3381 28.2955 53.656 28.2955 53.656L28.2966 53.6897L29.1924 54.0469C29.1924 54.0469 29.1937 54.4509 29.1838 55.1544L29.1926 55.1495C29.4741 53.8856 29.4643 52.8804 29.4643 52.8804Z" fill="#023351"/>
<path d="M29.1926 54.0468L28.0142 53.5771L26.9802 54.4438C27.3633 57.2948 28.1489 61.9173 28.6616 64.8575C29.2097 59.237 29.1926 54.0468 29.1926 54.0468Z" fill="#023351"/>
<path d="M23.6457 47.4901C23.6457 47.4901 22.4624 49.4916 21.9406 52.5587C21.184 57.0079 22.5349 66.9497 22.5349 66.9497C22.5349 66.9497 21.7959 68.8809 21.7207 70.7504C21.6456 72.6198 22.5554 83.3526 22.5554 83.3526C22.5554 83.3526 22.9936 83.7488 24.4494 83.3959C24.4494 83.3959 26.0331 73.0524 26.3658 67.0069C26.3658 67.0069 27.7906 59.8449 28.2183 54.526L28.8501 47.4062L23.6457 47.4901Z" fill="#003862"/>
<path d="M35.5416 84.4942C36.4867 84.4942 37.361 84.5745 37.2473 85.6336L35.1163 85.626L33.9576 85.6219L34.9358 84.397L35.5416 84.4942Z" fill="#003C61"/>
<path d="M33.1564 84.1774L31.9815 85.6147L30.7359 85.6101L30.8199 83.537L30.8147 83.5363L30.8133 83.4852C30.8133 83.3579 30.9158 83.2545 31.0427 83.2539C31.704 83.5683 32.1765 83.5928 32.7192 83.457C33.1044 83.3608 33.5106 83.4865 33.7596 83.7967L33.9015 83.9737C33.6044 84.2071 33.1564 84.1774 33.1564 84.1774Z" fill="#003C61"/>
<path d="M33.1562 84.1776C33.1562 84.1776 33.6045 84.2073 33.9012 83.9741L34.1375 84.2687L34.9361 84.397L33.9579 85.6219L31.9813 85.6149L33.1562 84.1776Z" fill="#003C61"/>
<path d="M37.2635 86.1152H30.7362L30.7288 85.5386H37.2561L37.2635 86.1152Z" fill="#00273D"/>
<path d="M22.1215 84.3416C22.1295 84.1086 22.1375 83.8822 22.1455 83.8293C22.2052 83.4372 22.536 83.1443 22.9311 83.1336L23.9471 83.1058C24.3945 83.0934 24.7688 83.4444 24.7867 83.8933V84.1343C25.4175 84.6623 25.4011 85.5366 25.4011 85.5366H21.7133C21.7133 85.5366 21.7001 84.8634 22.1215 84.3416Z" fill="#003C61"/>
<path d="M25.3983 86.1153H21.7105L21.7132 85.5366H25.401L25.3983 86.1153Z" fill="#00273D"/>
<path d="M26.1192 14.6177C23.5704 14.6177 20.8816 16.8223 21.6415 21.6316C22.4013 26.4408 17.6363 26.1003 17.0632 29.6147C16.4901 33.129 19.1743 32.2331 18.5712 36.6434C17.9679 41.0535 23.1553 41.0423 25.779 38.6863C28.4028 36.3305 32.2115 40.4194 33.5794 38.2323C34.9473 36.0452 33.1581 34.9425 33.3289 32.53C33.4997 30.1175 34.9471 28.2722 33.2281 26.963C31.509 25.6539 31.2624 23.1284 31.6263 20.5861C32.0131 17.8826 30.4625 14.6177 26.1192 14.6177Z" fill="#00273D"/>
<path d="M24.6885 29.7014C25.0047 29.4612 25.8911 29.1918 26.0106 29.2282C26.1215 29.1699 27.0424 29.2684 27.3977 29.4449C28.452 29.9688 29.4918 30.2821 30.3037 30.6884C30.1294 31.2149 30.0243 31.794 29.8906 32.262C29.6565 33.0817 29.4966 33.8888 29.3592 34.7082L26.5498 34.9627L21.111 35.4777C20.0373 35.5792 19.8656 34.2009 19.8656 34.2009C19.6864 32.2713 22.7643 31.163 24.6885 29.7014Z" fill="#F9A37E"/>
<path d="M28.4681 20.2969C26.512 20.3055 24.556 20.3125 22.6 20.3169L23.6865 25.2934C23.8495 26.4186 24.6803 27.9084 27.3404 27.9941C27.3404 27.9941 28.498 24.3874 28.335 23.2622L28.4681 20.2969Z" fill="#E37B58"/>
<path d="M23.8374 20.3151L24.1064 24.1078C24.0589 26.1725 25.316 27.9505 27.374 27.9981L27.4416 28.0055C28.9362 28.0401 30.1382 26.7932 30.1727 25.2937L30.5579 20.2871C28.3177 20.2989 26.0776 20.3089 23.8374 20.3151Z" fill="#F9A37E"/>
<path d="M29.7173 22.4044C29.7317 22.7945 29.5459 23.1182 29.3023 23.1272C29.0588 23.1361 28.85 22.8271 28.8356 22.4369C28.8212 22.0468 29.0071 21.7231 29.2506 21.7141C29.4941 21.705 29.7032 22.014 29.7173 22.4044Z" fill="#00273D"/>
<path d="M26.2464 22.4681C26.2802 22.8571 26.1108 23.1898 25.8681 23.211C25.6254 23.2322 25.4012 22.9341 25.3675 22.5452C25.3337 22.1563 25.5031 21.8236 25.7458 21.8024C25.9883 21.7809 26.2125 22.0792 26.2464 22.4681Z" fill="#00273D"/>
<path d="M21.9678 23.8029C22.2974 24.5284 22.9378 24.9455 23.3982 24.735C23.4435 24.7142 23.4854 24.688 23.524 24.6571C23.8751 24.3747 23.932 23.6937 23.6349 23.0398C23.3053 22.3143 22.6649 21.8971 22.2046 22.1079C21.7442 22.3184 21.6382 23.0773 21.9678 23.8029Z" fill="#E37B58"/>
<path d="M24.9815 23.1745C24.9815 23.1745 25.1439 22.8183 25.8012 22.7594C26.4582 22.7005 26.9898 23.2351 26.9898 23.2351L26.0373 23.6209L24.9815 23.1745Z" fill="#F9A37E"/>
<path d="M28.3036 23.114C28.3036 23.114 28.466 22.7578 29.1233 22.6989C29.7806 22.64 30.3122 23.1745 30.3122 23.1745L29.3596 23.5604L28.3036 23.114Z" fill="#F9A37E"/>
<path d="M25.6911 21.8907L25.1513 21.8369L25.479 22.1816L25.6911 21.8907Z" fill="#00273D"/>
<path d="M29.3309 21.7666L29.8734 21.7693L29.5103 22.0779L29.3309 21.7666Z" fill="#00273D"/>
<path d="M25.7347 21.8656L25.4694 21.6592L25.4969 21.9682L25.1513 22.1029L25.4312 22.3124L25.7347 21.8656Z" fill="#00273D"/>
<path d="M29.3344 21.7891L29.5998 21.5825L29.5723 21.8915L29.9177 22.0262L29.5906 22.1663L29.3344 21.7891Z" fill="#00273D"/>
<path d="M27.9921 26.081C28.297 26.081 28.5375 26.0493 28.5527 26.0473L28.5186 25.792C28.5134 25.7929 27.989 25.8619 27.5274 25.7922C27.0952 25.7271 26.816 25.4272 26.8131 25.4243L26.6234 25.5978C26.6369 25.6128 26.964 25.968 27.4892 26.0471C27.6591 26.0726 27.8342 26.081 27.9921 26.081Z" fill="#E37B58"/>
<path d="M26.4211 25.8505C26.9071 25.6473 26.9856 25.1853 26.9886 25.1657L26.7355 25.1245C26.733 25.1383 26.673 25.4665 26.3223 25.6131L26.4211 25.8505Z" fill="#E37B58"/>
<path d="M19.604 38.159C19.7342 38.1347 19.8592 38.0857 19.9787 38.0229C20.5592 38.1633 21.5278 37.5338 22.0809 37.6444C21.9908 39.118 21.3337 42.2782 21.1658 43.7779C21.1658 43.7779 21.4239 45.665 21.5154 47.4062C21.6058 49.1263 21.3791 52.1252 21.3791 52.1252L20.1338 55.2688C20.1338 55.2688 18.7985 47.5899 18.5221 43.6285C18.5221 43.6285 18.7525 39.9434 19.1798 37.5107C19.3344 37.5311 19.4424 38.1891 19.604 38.159Z" fill="#F9A37E"/>
<path d="M26.3835 31.2664C27.1765 31.2409 27.7989 30.5753 27.7736 29.7797L27.6592 26.1929L24.7872 26.285L24.9016 29.872C24.9271 30.6674 25.5905 31.2918 26.3835 31.2664Z" fill="#F9A37E"/>
<path d="M32.3445 39.2913C33.6272 37.6225 32.8659 36.0786 32.1558 35.1133C31.5998 34.3574 31.1825 33.5091 30.8971 32.6145L30.0561 30.1538L27.936 34.7371L22.7795 30.9922L21.5157 35.447L24.3291 47.5915C25.4162 47.759 29.5822 48.3146 31.8166 47.4063C31.6456 45.6485 31.6491 40.1961 32.3445 39.2913Z" fill="#00BBCD"/>
<path d="M32.1427 39.5488C32.1427 39.5488 31.3618 40.364 29.3982 40.0204C29.3982 40.0204 30.4809 40.9078 31.8468 40.5214L32.1427 39.5488Z" fill="#DE2222"/>
<path d="M22.7674 30.9331L22.7602 30.9376L22.7793 30.9924C22.7793 30.9924 20.6007 32.8384 20.2931 34.9445C20.1212 36.1204 20.0058 37.9291 19.9373 39.2977C20.412 39.4833 21.058 39.6065 21.9863 39.5688C21.9974 39.5252 22.0085 39.4819 22.0197 39.438C22.3021 38.3297 22.5871 37.1557 22.8704 35.9082L23.3103 32.9818L22.7674 30.9331Z" fill="#00BBCD"/>
<path d="M22.7793 30.9923L22.7602 30.9375L21.0319 32.0283C20.1941 32.6168 19.2342 34.0963 19.1773 35.1209C19.1143 36.2556 19.0217 37.3392 18.9083 38.3712C18.8995 38.4528 18.8896 38.5319 18.8804 38.6129C19.1247 38.8353 19.4352 39.1015 19.937 39.2978C20.0056 37.9291 20.121 36.1205 20.2929 34.9446C20.6007 32.8383 22.7793 30.9923 22.7793 30.9923Z" fill="#DE2222"/>
<path d="M28.2744 24.5183C28.3422 24.5021 28.9341 24.3494 28.8512 23.9706C28.7929 23.7065 28.5015 23.6309 28.3331 23.6091L28.174 22.7305L27.903 22.7799L28.1017 23.875L28.2153 23.8767C28.3202 23.8781 28.558 23.9189 28.5826 24.0299C28.5972 24.0965 28.3904 24.2063 28.211 24.2495L28.2744 24.5183Z" fill="#E37B58"/>
<path d="M23.0245 22.2617C23.6782 22.9275 23.7567 23.3763 23.7567 23.3763C23.7567 23.3763 23.6992 21.0918 25.2119 20.7951C26.7246 20.4985 28.0375 21.3709 29.9935 20.3154C29.9935 20.3154 30.7978 21.4609 30.6672 23.1712C30.5368 24.8814 31.2801 19.7134 31.2801 19.7134C31.2801 19.7134 30.0411 18.8369 29.7803 18.8369C29.5196 18.8369 24.5117 18.8369 24.5117 18.8369L21.7758 19.1509L21.8514 19.9227L23.0245 22.2617Z" fill="#00273D"/>
<path d="M24.3027 29.9804C24.3027 29.9804 23.6513 30.2473 23.0579 30.656C22.4645 31.0647 21.7097 32.1071 21.7097 32.1071L25.7685 35.7356L28.8202 35.8594L29.8142 33.4716L28.1488 29.7886C28.0508 34.2126 25.438 31.6974 24.3027 29.9804Z" fill="#00BBCD"/>
<path d="M29.9715 32.0655C29.9715 32.0655 30.1112 31.0147 30.15 30.1305C29.4153 29.9738 28.7607 29.8728 28.4128 29.8238C28.2595 29.8028 28.1484 29.7886 28.1484 29.7886L29.8138 33.4716L30.1713 32.613L29.9715 32.0655Z" fill="#00BBCD"/>
<path d="M24.0741 77.582C24.0741 77.582 27.7952 42.995 26.6233 38.1299L23.0581 30.6562C23.0581 30.6562 20.8789 31.3418 19.6781 33.0562C19.6781 33.0562 17.7613 37.5391 18.3502 43.7597C18.3502 43.7597 19.158 52.5963 19.8397 55.112L21.8027 54.6023L21.5159 52.0481C21.5159 52.0481 21.8664 45.6191 21.3122 43.7599L22.207 39.6343L23.6764 47.6554C23.6764 47.6554 19.9785 47.7909 17.623 77.3995C17.623 77.3995 20.4494 77.7643 24.0741 77.582Z" fill="white"/>
<path d="M22.1158 39.5349L23.5854 47.5559C23.5854 47.5559 19.8876 47.6914 17.532 77.3C17.532 77.3 20.3588 77.665 23.9834 77.4827C23.9834 77.4827 27.7044 42.8957 26.5326 38.0306L23.0581 30.6562C23.0581 30.6562 21.3401 31.4125 20.1393 33.127" fill="white"/>
<path d="M27.5878 37.9562L29.8138 30.0557L31.8275 30.4973C32.6303 30.6735 33.2092 31.3772 33.2293 32.2014L33.3697 37.956C33.3697 37.956 33.5242 39.4793 32.4577 40.2601C32.4577 40.2601 31.8435 44.9933 32.1427 47.2346C32.1427 47.2346 36.12 57.8685 36.1662 77.5819L29.1668 77.7836L27.5878 37.9562Z" fill="white"/>
<path d="M32.4577 40.2603C32.4577 40.2603 31.6844 41.1135 29.7208 40.7699C29.7208 40.7699 30.971 41.693 32.3371 41.3065L32.4577 40.2603Z" fill="#E2EAED"/>
<path d="M26.7687 41.045C26.7687 41.045 24.7762 41.8002 23.669 40.8306L24.216 41.8035C24.216 41.8035 25.7794 42.0221 26.7687 41.045Z" fill="#E2EAED"/>
<path d="M22.2066 39.6339L22.8608 37.2217C23.215 39.1873 23.4326 40.4472 24.2158 41.8033C24.2493 41.9065 24.4139 42.7052 24.4503 42.8059C24.7739 43.7057 24.6162 46.7006 24.7558 47.7184C24.4037 47.6754 23.8665 47.6842 23.6764 47.6548L22.2066 39.6339Z" fill="#E2EAED"/>
<path d="M26.7196 58.0742L19.1447 60.8443C18.9315 60.9222 18.6958 60.8122 18.6182 60.5984L16.7363 55.4185C16.6587 55.2047 16.7684 54.9682 16.9815 54.8903L24.5564 52.1202C24.7696 52.0424 25.0053 52.1524 25.0829 52.3662L26.9648 57.5459C27.0426 57.7599 26.9328 57.9964 26.7196 58.0742Z" fill="#00273D"/>
<path d="M26.0215 57.8168L19.5141 60.1965C19.3009 60.2744 19.0652 60.1644 18.9876 59.9506L17.4344 55.6759C17.3568 55.462 17.4665 55.2255 17.6796 55.1477L24.187 52.7682C24.4002 52.6903 24.6359 52.8003 24.7135 53.0141L26.2667 57.2888C26.3443 57.5025 26.2346 57.739 26.0215 57.8168Z" fill="white"/>
<path d="M25.5922 56.595L26.4989 56.2636L25.588 53.7563L24.6813 54.088C24.6024 54.1168 24.562 54.2042 24.5905 54.2833L25.3975 56.5042C25.4262 56.5831 25.5133 56.6239 25.5922 56.595Z" fill="#CCCDCE"/>
<path d="M26.3617 55.8862L26.6921 55.7655C26.7642 55.7391 26.8013 55.659 26.775 55.5867L26.2336 54.0961C26.2073 54.0238 26.1274 53.9865 26.0554 54.0129L25.725 54.1336L26.3617 55.8862Z" fill="#CCCDCE"/>
<path d="M23.9201 23.6445C23.9201 23.6445 28.3586 22.9414 30.354 23.8577C30.354 23.8577 30.7737 27.956 27.6342 27.9575C23.6115 27.9591 23.9201 23.6445 23.9201 23.6445Z" fill="white"/>
<path d="M24.2801 24.0793C24.2805 23.6694 23.801 23.0969 23.4004 22.6802C23.447 22.7556 23.5386 22.8779 23.5772 22.9628C23.6511 23.1255 23.7076 23.2831 23.7368 23.4422C23.9072 23.6772 24.0248 23.9036 24.0248 24.0791L24.2801 24.0793Z" fill="white"/>
<path d="M23.3725 22.7533C23.3641 22.7444 23.3554 22.7349 23.347 22.7261C23.3308 22.7553 23.3218 22.77 23.3218 22.77L23.0306 22.7728C23.2483 22.9877 23.4786 23.2384 23.6538 23.4798C23.6246 23.3208 23.5749 23.1566 23.501 22.9939C23.4622 22.909 23.4191 22.8287 23.3725 22.7533Z" fill="#E17B58"/>
<path d="M25.2002 26.2552L25.233 26.0012C24.4437 25.8974 23.7637 24.9692 23.5337 24.5942L23.637 25.0672C23.6386 25.087 23.6612 25.1684 23.6635 25.1883C23.9803 25.6092 24.438 26.0698 25.0298 26.2223C25.0856 26.2365 25.1425 26.2478 25.2002 26.2552Z" fill="white"/>
<path d="M22.908 24.67C22.908 24.8584 23.0604 25.0113 23.2483 25.0113C23.4361 25.0113 23.5885 24.8584 23.5885 24.67C23.5885 24.4815 23.4361 24.3286 23.2483 24.3286C23.0604 24.3286 22.908 24.4815 22.908 24.67Z" fill="white"/>
<path d="M24.3797 64.0222L20.5579 63.6045L20.4451 64.6436L24.2669 65.0613L24.3797 64.0222Z" fill="#E2E2E2"/>
<path d="M34.9225 63.699L31.085 63.9312L31.1477 64.9745L34.9852 64.7423L34.9225 63.699Z" fill="#E2E2E2"/>
<path d="M22.0364 55.7088C22.1927 55.8126 22.3906 55.9772 22.6013 56.1387C23.283 56.6613 23.4553 56.1653 23.4553 56.1653L22.7327 55.4696L22.1957 54.9321C21.9013 54.439 20.7313 53.4976 20.7313 53.4976L20.0942 53.8865L20.0143 54.5409C20.0046 54.565 19.9917 54.5873 19.9878 54.6141L19.8646 55.7683V55.7689L19.6989 57.3213C19.6708 57.5088 19.6849 57.6862 19.872 57.7144L19.9063 57.7195C20.0931 57.7478 20.1471 57.5805 20.1751 57.393L20.3038 56.7398L20.1683 58.0098C20.1404 58.1972 20.1545 58.3746 20.3414 58.4028L20.3757 58.408C20.5625 58.4362 20.6165 58.2689 20.6447 58.0815L20.6701 57.9521L20.6327 58.6562C20.6147 58.8449 20.6383 59.0212 20.8264 59.0394L20.8609 59.0427C21.049 59.0608 21.0939 58.891 21.112 58.7021L21.2471 57.7537L21.2832 58.4646C21.2849 58.6544 21.3266 58.8272 21.5157 58.8255L21.5504 58.8253C21.7393 58.8237 21.7666 58.6502 21.7647 58.4605L21.8549 56.0649C21.9042 55.9345 21.9705 55.8173 22.0364 55.7088Z" fill="#9FB8F7"/>
<path d="M19.7574 33.0562C19.7574 33.0562 17.8406 37.5391 18.4295 43.7597C18.4295 43.7597 19.2373 52.5963 19.919 55.112L21.882 54.6023L21.5951 52.0481C21.5951 52.0481 21.9456 45.6191 21.3914 43.7599L22.2372 39.5221" fill="white"/>
<path d="M32.4014 56.0769C32.2451 56.1808 32.0472 56.3453 31.8365 56.5068C31.1548 57.0295 30.9825 56.5334 30.9825 56.5334L31.7051 55.8378L32.2421 55.3003C32.5365 54.8071 33.7065 53.8657 33.7065 53.8657L34.3436 54.2547L34.4235 54.9091C34.4332 54.9332 34.4461 54.9555 34.45 54.9822L34.5732 56.1365V56.1371L34.7389 57.6895C34.7668 57.877 34.7529 58.0543 34.5658 58.0825L34.5315 58.0877C34.3447 58.1159 34.2907 57.9486 34.2627 57.7612L34.134 57.108L34.2695 58.3779C34.2974 58.5654 34.2833 58.7428 34.0964 58.771L34.0621 58.7761C33.8753 58.8044 33.8213 58.6371 33.7931 58.4496L33.7677 58.3203L33.8051 59.0244C33.8231 59.2131 33.7995 59.3894 33.6114 59.4075L33.5769 59.4108C33.3888 59.429 33.3439 59.2592 33.3258 59.0703L33.1907 58.1219L33.1546 58.8328C33.1529 59.0225 33.1112 59.1954 32.9221 59.1937L32.8874 59.1935C32.6985 59.1919 32.6712 59.0184 32.6731 58.8287L32.5829 56.4331C32.5336 56.3029 32.4673 56.1855 32.4014 56.0769Z" fill="#9FB8F7"/>
<path d="M32.1427 30.5986C32.1427 30.5986 35.6135 31.3956 36.0539 43.7596C36.0539 43.7596 35.2461 52.5961 34.5644 55.1118L32.6016 54.6022L32.8885 52.048C32.8885 52.048 32.538 45.6189 33.0922 43.7598L32.4577 39.5489" fill="white"/>
<path d="M30.4165 42.5526C30.3526 42.4061 28.8623 38.943 29.7122 37.1945C29.9393 36.7273 30.3146 36.4235 30.8275 36.2912C31.3372 36.1596 31.7959 36.2457 32.1914 36.5468C33.6872 37.6852 33.7866 41.5275 33.7901 41.6907L33.5847 41.695C33.5839 41.6561 33.4843 37.7892 32.0671 36.7108C31.7195 36.4461 31.3306 36.374 30.8787 36.4906C30.4265 36.607 30.0961 36.8742 29.8968 37.2845C29.0882 38.9478 30.5893 42.4349 30.6045 42.47L30.4165 42.5526Z" fill="#727272"/>
<path d="M27.7494 29.3037L27.759 29.5966C29.73 31.4807 30.7382 36.3574 30.7489 36.4109L30.9573 36.3714C30.9115 36.1448 29.8727 31.1173 27.7494 29.3037Z" fill="#727272"/>
<path d="M23.2696 39.619L23.4749 39.5661C21.8405 33.5993 23.6472 30.5936 24.8811 29.4628L24.8726 29.208C23.5825 30.3109 21.5639 33.3927 23.2696 39.619Z" fill="#727272"/>
<path d="M33.2618 41.2244L33.7632 41.5087C33.8757 41.5724 33.8724 41.7359 33.7576 41.7953L33.2197 42.0732C33.1076 42.131 32.9751 42.0441 32.9833 41.9178L33.0199 41.3554C33.0277 41.2358 33.1575 41.1653 33.2618 41.2244Z" fill="#00273D"/>
<path d="M30.9832 41.8953L31.2117 42.413C31.2635 42.53 31.1665 42.6583 31.0403 42.6402L30.4374 42.553C30.3101 42.5347 30.2536 42.3821 30.3382 42.2848L30.7123 41.8541C30.7904 41.7645 30.9351 41.7863 30.9832 41.8953Z" fill="#00273D"/>
<path d="M22.4483 39.8306C22.5838 40.3255 23.1074 40.62 23.6174 40.4886C24.1277 40.3572 24.4314 39.8496 24.2959 39.3548C24.1603 38.86 23.637 38.5654 23.1267 38.6968C22.6166 38.8282 22.3128 39.3358 22.4483 39.8306Z" fill="#00273D"/>
<path d="M122.01 52.5713L126.808 52.9631C126.816 54.552 126.94 58.7875 126.87 61.0169C126.726 65.6455 126.729 71.2806 126.611 75.929C126.532 79.0553 126.635 81.9908 126.753 83.7267L124.39 83.7135C123.594 77.4954 121.887 59.3524 122.01 52.5713Z" fill="#EC9B66"/>
<path d="M135.621 83.433L133.478 83.4485C133.478 83.4485 125.472 53.1034 125.864 53.1003L131.835 52.9341C131.843 53.8403 135.621 83.433 135.621 83.433Z" fill="#EC9B66"/>
<path d="M121.213 52.6875L127.553 53.0595C127.553 53.0686 127.553 53.0787 127.553 53.0878L125.391 53.1656C125.255 53.1667 126.152 59.0002 127.379 63.4001C127.311 65.3307 126.985 79.7297 126.909 81.7553C126.909 81.7553 126.714 82.5431 123.956 81.7768C123.369 76.3291 121.152 56.0346 121.213 52.6875Z" fill="#1A5789"/>
<path d="M122.01 52.5714C121.995 50.4199 124.255 48.6592 127.06 48.6389C129.864 48.6185 132.15 50.3462 132.166 52.4976C132.167 52.7036 132.142 52.9045 132.103 53.1023C132.222 54.2855 134.713 75.4905 135.609 81.7987C135.017 81.9602 133.354 81.989 132.7 81.8213C132.41 80.8045 128.487 67.3404 128.198 66.318C127.915 65.3146 127.64 64.3346 127.379 63.4008C126.895 61.6642 125.858 58.2547 125.52 56.9814C123.187 56.6446 122.024 54.4629 122.01 52.5714Z" fill="#1A5789"/>
<path d="M124.746 52.9781C127.919 53.4859 130.903 52.5506 132.267 52.0175L132.204 52.953C132.192 53.1213 132.08 53.2657 131.919 53.3161C130.504 53.7615 123.808 55.6594 121.057 52.6646C120.991 52.5929 120.956 52.4993 120.953 52.4019C120.936 51.8647 120.916 51.3089 120.892 50.7407C121.69 51.7349 122.91 52.6843 124.746 52.9781Z" fill="#003C61"/>
<path d="M128.441 31.5042C128.33 32.7235 125.014 33.5896 125.09 31.626L125.402 27.7064L128.533 27.5171C128.279 29.2129 128.209 30.6499 128.441 31.5042Z" fill="#E07B4D"/>
<path d="M124.89 30.1697C124.89 30.1697 124.428 26.5224 124.784 25.4786L125.388 21.1819C125.743 20.1379 126.614 19.222 127.605 19.3845L130.038 19.7835C131.029 19.9461 131.75 21.1934 131.394 22.2374L129.085 28.3014C128.729 29.3452 127.442 30.5646 124.89 30.1697Z" fill="#E07B4D"/>
<path d="M124.857 30.1673L124.791 30.1624C123.36 29.9275 122.611 28.3403 122.845 26.9041L123.485 20.3792C123.545 20.0117 123.894 19.7604 124.26 19.8204L129.116 20.6168C129.482 20.6769 130.18 21.1029 130.121 21.4704L128.85 27.0691C128.528 29.0469 126.828 30.4908 124.857 30.1673Z" fill="#EC9B66"/>
<path d="M123.618 24.4125C123.535 24.7821 123.654 25.124 123.885 25.1761C124.116 25.2283 124.37 24.971 124.453 24.6014C124.536 24.2318 124.416 23.8899 124.186 23.8378C123.955 23.7856 123.701 24.0429 123.618 24.4125Z" fill="#17213F"/>
<path d="M126.917 25.0956C126.815 25.4604 126.918 25.8082 127.145 25.8718C127.373 25.9355 127.64 25.6914 127.742 25.3263C127.843 24.9615 127.741 24.614 127.513 24.5501C127.285 24.4865 127.019 24.7306 126.917 25.0956Z" fill="#17213F"/>
<path d="M123.752 22.9423C124.099 22.9592 124.42 23.0171 124.744 23.1238C124.88 23.1687 125.025 23.0842 125.057 22.9441L125.057 22.9437C125.084 22.8267 125.024 22.7033 124.913 22.6599C124.538 22.5136 124.153 22.4427 123.757 22.4491C123.637 22.4512 123.538 22.5474 123.524 22.6673C123.507 22.8076 123.611 22.9355 123.752 22.9423Z" fill="#603E1D"/>
<path d="M127.074 23.7147C127.459 23.7516 127.812 23.8338 128.166 23.9724C128.299 24.0246 128.448 23.9467 128.487 23.8087L128.496 23.7769C128.529 23.6614 128.475 23.5349 128.366 23.4855C127.964 23.3027 127.545 23.2034 127.109 23.1901C126.989 23.1863 126.885 23.2774 126.865 23.3967L126.86 23.4284C126.836 23.5674 126.933 23.7013 127.074 23.7147Z" fill="#603E1D"/>
<path d="M127.885 26.047C127.885 26.047 127.808 25.6963 127.23 25.5165C126.652 25.3365 126.073 25.7132 126.073 25.7132L126.853 26.2433L127.885 26.047Z" fill="#EC9B66"/>
<path d="M124.919 25.3501C124.919 25.3501 124.842 24.9995 124.264 24.8197C123.686 24.6398 123.107 25.0164 123.107 25.0164L123.887 25.5464L124.919 25.3501Z" fill="#EC9B66"/>
<path d="M129.519 22.0209C129.519 22.0209 126.978 22.1048 125.283 21.7531C123.587 21.4015 123.207 21.0099 123.207 21.0099C123.207 21.0099 123.262 20.6094 123.402 20.1193C123.689 19.119 124.677 18.4921 125.701 18.6613C126.11 18.7288 126.632 18.8135 127.284 18.9169C129.387 19.2504 130.948 19.4428 131.604 20.9631C132.26 22.4836 131.151 24.552 130.295 25.987L129.709 25.8346C129.709 25.8346 129.736 24.8963 129.519 22.0209Z" fill="#603E1D"/>
<path d="M130.76 27.1348C130.316 27.7677 129.631 28.0509 129.23 27.7675C129.19 27.7395 129.155 27.7071 129.124 27.6707C128.839 27.3386 128.906 26.6788 129.306 26.1083C129.749 25.4755 130.434 25.1923 130.836 25.4757C131.238 25.7592 131.204 26.502 130.76 27.1348Z" fill="#E07B4D"/>
<path d="M123.797 27.8429C123.767 27.7137 123.746 27.5944 123.733 27.5015C123.721 27.4158 123.807 27.3503 123.886 27.3849C124.031 27.4486 124.255 27.5402 124.512 27.6214C124.851 27.7283 125.587 27.7096 125.934 27.6935C126.019 27.6896 126.077 27.7802 126.036 27.856C125.984 27.9537 125.907 28.0831 125.809 28.2178C125.461 28.1966 124.829 28.1498 124.497 28.0723C124.287 28.0233 124.024 27.9306 123.797 27.8429Z" fill="white"/>
<path d="M124.879 28.5C125.115 28.4613 125.386 28.5031 125.537 28.5336C125.296 28.7678 124.99 28.9513 124.626 28.9173C124.545 28.9097 124.473 28.8836 124.406 28.8502C124.53 28.6957 124.7 28.5292 124.879 28.5Z" fill="white"/>
<path d="M123.797 27.8428C124.024 27.9305 124.287 28.0232 124.498 28.0723C124.829 28.1497 125.461 28.1965 125.809 28.2175C125.732 28.324 125.64 28.4328 125.537 28.5333C125.386 28.5026 125.115 28.461 124.879 28.4997C124.7 28.529 124.53 28.6954 124.406 28.8501C124.064 28.6806 123.886 28.2198 123.797 27.8428Z" fill="white"/>
<path d="M132.972 83.4976L131.698 79.1877C131.703 79.0503 131.831 78.9419 131.986 78.9444L135.791 78.9858C135.927 78.988 136.043 79.0764 136.064 79.1961C136.097 79.3774 136.485 83.3672 136.533 83.6305C136.869 83.8754 137.093 84.2757 137.098 84.7326L137.107 85.5755L132.16 85.6114L132.151 84.7684C132.145 84.1933 132.486 83.7013 132.972 83.4976Z" fill="#003C61"/>
<path d="M132.164 86.0524L137.112 86.0166L137.105 85.5273L132.157 85.5634L132.164 86.0524Z" fill="#003C61"/>
<path d="M119.553 86.1149L127.54 86.057C127.604 86.0566 127.652 85.9975 127.64 85.9342L127.567 85.5698L119.407 85.6289L119.404 85.9649C119.403 86.048 119.47 86.1155 119.553 86.1149Z" fill="#003C61"/>
<path d="M121.432 84.3758L121.561 84.3542C124.796 84.0466 122.739 79.4454 123.639 79.005C123.728 78.9615 124.035 79.0021 124.035 79.0021C124.88 79.3836 126.115 79.5127 127.191 78.992C127.341 78.9916 127.464 79.1133 127.465 79.2643L127.454 83.3167C127.453 83.3785 127.455 83.4401 127.459 83.5017L127.584 85.655L119.419 85.742C119.275 84.4868 120.311 84.3838 121.432 84.3758Z" fill="#003C61"/>
<path d="M129.738 25.6719L129.734 25.6705C129.734 25.6705 129.735 25.635 129.733 25.5996C129.121 25.9395 128.416 26.4292 128.272 26.9087L128.564 26.9973C128.632 26.7722 128.89 26.5254 129.215 26.2928C129.25 26.2306 129.287 26.1684 129.33 26.1078C129.451 25.9344 129.591 25.7885 129.738 25.6719Z" fill="white"/>
<path d="M129.231 27.7446C128.872 28.1818 128.342 28.6751 127.744 28.7419L127.775 29.0241C127.839 29.0171 127.902 29.006 127.964 28.9911C128.6 28.8406 129.138 28.3138 129.498 27.8645C129.41 27.8493 129.327 27.8169 129.254 27.7654C129.245 27.7593 129.239 27.751 129.231 27.7446Z" fill="white"/>
<path d="M125.131 26.7104C125.09 26.7007 124.728 26.6107 124.602 26.3968C124.557 26.3212 124.546 26.237 124.569 26.1533C124.648 25.8742 124.997 25.8338 125.156 25.8303L125.422 25.0234L125.61 25.0859L125.298 26.0351L125.221 26.03C125.217 26.03 124.816 26.0091 124.761 26.2071C124.752 26.2388 124.755 26.2662 124.773 26.2953C124.843 26.4152 125.094 26.497 125.177 26.5161L125.131 26.7104Z" fill="#E07B4D"/>
<path d="M128.922 26.8825C128.922 26.8825 125.092 25.5237 122.879 25.9652C122.879 25.9652 122 29.7861 124.702 30.1338C128.791 30.6601 128.922 26.8825 128.922 26.8825Z" fill="white"/>
<path d="M126.465 34.7283C129.339 34.505 130.408 32.7338 130.781 31.765C130.313 31.4997 129.846 31.2321 129.405 30.9521C129.446 31.2737 129.446 31.6789 129.328 32.1385C129.034 33.2779 126.894 33.9 125.849 33.7105C125.725 33.6882 125.61 33.6557 125.5 33.617L125.843 33.1108L124.376 31.2253C124.376 31.2253 123.792 31.3866 122.884 31.8866C123.026 33.0362 123.641 34.9477 126.465 34.7283Z" fill="#003C61"/>
<path d="M120.506 40.8804C120.551 45.1304 120.747 47.2151 120.892 50.7406C121.69 51.735 122.91 52.6844 124.746 52.9782C127.918 53.4858 130.903 52.5507 132.266 52.0176L132.533 50.5L132.948 41.0654C133.099 42.1854 133.192 43.2884 133.244 44.3515C133.782 44.4984 135.622 44.9098 137.235 44.1997C137.329 42.7596 137.309 41.497 137.1 40.6691C136.772 38.821 135.439 34.9493 133.503 33.4815C132.736 32.8606 131.755 32.3178 130.781 31.7651C130.408 32.734 129.339 34.5053 126.465 34.7284C123.641 34.9478 123.026 33.0364 122.884 31.8865C121.815 32.4746 120.257 33.5446 118.823 35.4424" fill="#1A5789"/>
<path d="M129.328 32.1385C129.034 33.2779 126.894 33.9 125.849 33.7105C124.803 33.521 124.223 32.7062 124.247 31.8872C124.253 31.6927 124.304 31.4626 124.376 31.2251C124.807 30.9857 125.224 30.7395 125.607 30.4779C126.015 30.1996 127.009 29.9708 127.147 30.0369C127.286 29.9743 128.371 30.2377 128.772 30.5263C128.975 30.6722 129.187 30.8133 129.406 30.9519C129.446 31.2737 129.446 31.6787 129.328 32.1385Z" fill="#E07B4D"/>
<path d="M131.14 49.1028L128.673 49.1206L128.678 49.8746L131.146 49.8567L131.14 49.1028Z" fill="#003C61"/>
<path d="M124.244 49.1526L121.776 49.1704L121.782 49.9244L124.249 49.9065L124.244 49.1526Z" fill="#003C61"/>
<path d="M122.078 41.7009L120.091 51.8208L128.389 53.461L130.376 43.3411L122.078 41.7009Z" fill="#CCCDCE"/>
<path d="M122.545 42.5704L120.851 51.1938L127.922 52.5915L129.616 43.968L122.545 42.5704Z" fill="#CCCDCE"/>
<path d="M124.476 42.1744L124.214 43.5059L127.717 44.1982L127.979 42.8667L124.476 42.1744Z" fill="#CCCDCE"/>
<path d="M120.067 39.7869C119.904 40.3219 118.83 45.5497 118.83 45.5497C119.77 46.0487 123.952 47.5176 123.952 47.5176C124.128 48.4572 123.433 49.5888 123.433 49.5888C123.433 49.5888 120.812 49.1549 119.102 48.5744C118.316 48.3072 117.539 48.0024 116.949 47.6808C115.077 46.6609 117.287 39.7329 117.287 39.7329L120.067 39.7869Z" fill="#EC9B66"/>
<path d="M118.823 35.4424C118.008 36.5204 117.234 37.8656 116.611 39.5414C116.301 40.3781 115.948 42.4262 115.783 42.9159L119.537 43.9941C119.879 42.7622 119.826 43.1221 120.022 42.3679C120.094 42.0898 120.393 41.1216 120.506 40.8802" fill="#1A5789"/>
<path d="M125.509 47.6471C125.691 47.5072 125.959 47.3428 126.229 47.1626C127.102 46.5794 126.599 46.1826 126.599 46.1826L125.51 46.7444L124.677 47.1535C123.992 47.2991 122.978 47.1702 122.978 47.1702L122.653 49.4473L123.345 49.5736C123.405 49.5886 123.413 49.5911 123.442 49.6063L124.715 50.1901L124.716 50.1906L126.439 50.9997C126.644 51.1068 126.854 51.1608 126.961 50.9552L126.98 50.9175C127.087 50.7119 126.916 50.583 126.711 50.4759L126.009 50.067L127.419 50.7288C127.624 50.836 127.834 50.8899 127.941 50.6843L127.96 50.6466C128.067 50.441 127.896 50.3121 127.691 50.205L127.552 50.124L128.348 50.4472C128.559 50.5432 128.771 50.5859 128.867 50.3747L128.884 50.336C128.98 50.1248 128.802 50.0054 128.592 49.9094L127.552 49.3758L128.386 49.6164C128.605 49.6898 128.821 49.7102 128.895 49.4904L128.908 49.45C128.981 49.2302 128.792 49.1297 128.573 49.0561L125.847 47.9995C125.717 47.8902 125.608 47.7666 125.509 47.6471Z" fill="#9FB8F7"/>
<path d="M66.3793 35.623C66.443 36.2594 67.6081 42.2513 67.6081 42.2513C68.8195 42.3615 73.8779 42.0605 73.8779 42.0605C74.4773 42.9737 74.2418 44.4753 74.2418 44.4753C74.2418 44.4753 71.285 45.1777 69.2259 45.3217C68.2785 45.3881 67.3253 45.4097 66.5617 45.3316C64.1379 45.084 63.4232 36.796 63.4232 36.796L66.3793 35.623Z" fill="#EC9B66"/>
<path d="M62.5856 51.854L57.5709 52.3002C57.5738 53.962 57.458 55.824 57.5473 58.1551C57.7329 62.9951 57.7724 70.6241 57.9305 75.4849C58.0368 78.7541 57.9518 81.8251 57.8412 83.6415L60.3125 83.6095C61.0977 77.1001 62.7657 58.9453 62.5856 51.854Z" fill="#EC9B66"/>
<path d="M48.564 83.4017H50.8059C50.8059 83.4017 58.9685 52.4371 58.5592 52.4366L52.3124 52.3081C52.3107 53.2559 48.564 83.4017 48.564 83.4017Z" fill="#EC9B66"/>
<path d="M63.4203 51.9697L56.7921 52.4069C56.7921 52.4163 56.7923 52.4268 56.7923 52.4365L59.0537 52.5014C59.1962 52.5016 58.283 57.7758 57.033 62.3869C57.1184 64.4055 57.5685 79.4631 57.6629 81.581C57.6629 81.581 57.8728 82.4033 60.7514 81.581C61.3251 75.8789 63.5092 55.4699 63.4203 51.9697Z" fill="white"/>
<path d="M62.5856 51.8537C62.5856 49.6034 60.2077 49.5142 57.2745 49.5142C54.3411 49.5142 51.9633 49.6034 51.9633 51.8537C51.9633 52.0692 51.9917 52.2791 52.0335 52.4855C51.9186 53.724 49.4544 75.0872 48.564 81.6918C49.1852 81.8562 50.9243 81.8739 51.6067 81.6932C51.9023 80.6274 55.9041 66.5158 56.1983 65.4441C56.4872 64.3925 56.7677 63.3656 57.033 62.3867C57.5264 60.5667 58.4467 57.3801 58.7909 56.0458C61.2282 55.6762 62.5856 53.8321 62.5856 51.8537Z" fill="white"/>
<path d="M59.7272 52.3003C56.4129 52.8552 53.2842 51.8998 51.8545 51.3527L51.9272 52.3306C51.9403 52.5063 52.0592 52.6567 52.2272 52.7082C53.7113 53.1632 60.7286 55.0974 63.5829 51.9443C63.6513 51.8689 63.6879 51.7707 63.6903 51.6687C63.7033 51.1067 63.7207 50.5252 63.7408 49.9307C62.9139 50.9769 61.6454 51.9789 59.7272 52.3003Z" fill="#1A5789"/>
<path d="M51.3354 83.4493L52.6356 78.9319C52.6292 78.7881 52.4937 78.6759 52.3315 78.6798L48.3529 78.7521C48.2098 78.7556 48.0903 78.8487 48.0683 78.9742C48.0353 79.1639 47.6591 83.3399 47.6119 83.6155C47.2616 83.8743 47.0306 84.2945 47.0289 84.7722L47.0261 85.6539H52.2007L52.2035 84.7722C52.2058 84.1705 51.8452 83.6584 51.3354 83.4493Z" fill="#1A5789"/>
<path d="M52.199 86.1152H47.0244L47.0281 85.6035H52.2027L52.199 86.1152Z" fill="#003C61"/>
<path d="M65.3898 86.0849H57.0354C56.9683 86.0849 56.9178 86.0235 56.9303 85.9574L57.0034 85.5757H65.5379L65.5443 85.9269C65.5461 86.0138 65.4763 86.0849 65.3898 86.0849Z" fill="#003C61"/>
<path d="M63.4112 84.2805L63.2761 84.2589C59.8906 83.9617 62.0074 79.1338 61.0624 78.68C60.9692 78.6353 60.6485 78.68 60.6485 78.68C59.768 79.0856 58.4765 79.2298 57.3477 78.6934C57.1905 78.694 57.0632 78.8224 57.0634 78.9804L57.1057 83.2186C57.1063 83.2831 57.105 83.3478 57.1018 83.4123L56.9866 85.6653L65.5274 85.6943C65.6685 84.3802 64.5837 84.2805 63.4112 84.2805Z" fill="#1A5789"/>
<path d="M60.5118 25.1702C60.5426 25.0349 60.5633 24.9098 60.576 24.8126C60.5879 24.7228 60.4978 24.655 60.4155 24.6919C60.2641 24.7597 60.0307 24.8571 59.7623 24.944C59.4089 25.0586 58.6391 25.0444 58.2761 25.0301C58.1864 25.0266 58.127 25.122 58.1701 25.2009C58.2258 25.3027 58.3071 25.4374 58.4102 25.5775C58.7744 25.5528 59.4348 25.499 59.781 25.4156C60.0007 25.3626 60.2748 25.2637 60.5118 25.1702Z" fill="white"/>
<path d="M59.3853 25.8659C59.1377 25.8272 58.8547 25.8729 58.6976 25.9061C58.9508 26.1491 59.2726 26.3389 59.6528 26.3005C59.7374 26.2921 59.8122 26.2641 59.8824 26.2286C59.7518 26.068 59.5726 25.8951 59.3853 25.8659Z" fill="white"/>
<path d="M60.5117 25.1704C60.2748 25.2639 60.0005 25.3628 59.781 25.416C59.4348 25.4994 58.7744 25.5532 58.4102 25.5779C58.4917 25.6887 58.589 25.8018 58.6974 25.906C58.8545 25.8729 59.1375 25.8271 59.3851 25.8659C59.5723 25.8951 59.7516 26.068 59.8822 26.2286C60.2393 26.0486 60.422 25.5653 60.5117 25.1704Z" fill="white"/>
<path d="M50.3375 31.3612C50.3929 31.3157 50.4504 31.2702 50.5081 31.2245V31.2236L50.3375 31.3612Z" fill="#2666A5"/>
<path d="M51.2801 39.5201L51.5454 48.9337L51.8545 51.3528C53.078 51.821 55.5466 52.5851 58.3099 52.4489C58.7758 52.426 59.2491 52.3803 59.7273 52.3004C61.6454 51.9792 62.9141 50.977 63.741 49.9309C63.8437 46.9052 63.6051 44.0461 63.5244 40.0386L63.7431 41.3342C63.7431 41.3342 65.4906 41.8323 67.5351 39.9125C67.5351 39.9125 67.2495 31.2371 60.9201 29.0026C60.454 28.8236 59.9325 28.7127 59.9325 28.7127L58.412 30.6959L58.775 31.2226C58.66 31.2641 58.5393 31.2989 58.4105 31.3232C58.3791 31.3291 58.3436 31.332 58.3103 31.3366C57.1878 31.49 55.0671 30.8607 54.7601 29.7055C54.6326 29.2257 54.6293 28.8019 54.6698 28.4653C54.3918 28.6448 54.1 28.8287 53.8039 29.0147L53.7975 29.0028C52.43 29.4857 51.3444 30.2691 50.483 31.2008" fill="#2666A5"/>
<path d="M53.7971 29.0021C53.7971 29.0021 52.6319 32.9563 58.1184 32.9563C63.6049 32.9563 61.2086 29.1102 61.2086 29.1102L60.0491 28.7438L54.9575 28.2749L53.7971 29.0021Z" fill="#1A5789"/>
<path d="M54.7595 29.705C55.0757 30.8944 57.318 31.5289 58.4102 31.3227C59.5023 31.1165 60.1031 30.2602 60.0713 29.4036C60.0639 29.2003 60.0093 28.9599 59.9319 28.7123C59.4789 28.4653 59.0409 28.2107 58.6387 27.9402C58.2102 27.652 57.1687 27.4205 57.0248 27.4907C56.8784 27.4262 55.7455 27.7101 55.3285 28.0148C55.1176 28.1689 54.8965 28.3182 54.6692 28.4649C54.6287 28.8015 54.632 29.2252 54.7595 29.705Z" fill="#EC9B66"/>
<path d="M54.6694 28.4648C54.6694 28.4648 53.691 31.1418 57.4765 31.8713C61.2618 32.6005 60.6719 28.9106 60.6719 28.9106L59.9321 28.7123L56.6743 29.1424L54.6694 28.4648Z" fill="#EC9B66"/>
<path d="M55.6825 29.0352C55.8075 30.3095 59.2824 31.1903 59.1875 29.1371L58.8315 25.04L55.5558 24.8657C55.8346 26.6373 55.9188 28.1397 55.6825 29.0352Z" fill="#EC9B66"/>
<path d="M59.3863 27.6125C59.3863 27.6125 59.8424 23.7945 59.4623 22.7054L58.798 18.2161C58.4182 17.1269 57.5005 16.1754 56.465 16.353L53.924 16.7887C52.8883 16.9663 52.1442 18.2762 52.5243 19.3653L54.9852 25.6899C55.3651 26.7793 56.7201 28.0447 59.3863 27.6125Z" fill="#E07B4D"/>
<path d="M59.4206 27.6099L59.4894 27.6041C60.9848 27.3477 61.756 25.682 61.5004 24.1815L60.7811 17.362C60.7156 16.9783 60.3493 16.7179 59.9668 16.7836L54.8944 17.6533C54.5119 17.7188 53.7846 18.17 53.8499 18.5537L55.2207 24.3996C55.5728 26.4658 57.3613 27.963 59.4206 27.6099Z" fill="#EC9B66"/>
<path d="M60.6733 21.5814C60.763 21.9674 60.6404 22.3258 60.3996 22.3821C60.1587 22.4385 59.8908 22.1711 59.8012 21.7853C59.7115 21.3992 59.8341 21.0408 60.075 20.9846C60.3156 20.9281 60.5836 21.1955 60.6733 21.5814Z" fill="#17213F"/>
<path d="M57.2278 22.3207C57.3366 22.7016 57.2323 23.0658 56.9948 23.1342C56.7572 23.2026 56.4761 22.9492 56.3673 22.5684C56.2584 22.1875 56.3628 21.8233 56.6003 21.7549C56.8381 21.6863 57.119 21.9396 57.2278 22.3207Z" fill="#17213F"/>
<path d="M60.5218 20.0448C60.159 20.0649 59.8235 20.128 59.4855 20.2421C59.3436 20.2901 59.1917 20.2028 59.157 20.0567L59.1568 20.0563C59.1278 19.9339 59.1892 19.8046 59.3056 19.7582C59.6962 19.6025 60.0986 19.5252 60.513 19.5289C60.6389 19.53 60.7428 19.6301 60.7586 19.7553C60.7773 19.902 60.669 20.0365 60.5218 20.0448Z" fill="#17213F"/>
<path d="M57.0537 20.8781C56.6509 20.9195 56.2827 21.0082 55.9135 21.1557C55.7745 21.2114 55.6183 21.1308 55.5764 20.9868L55.5667 20.9537C55.5316 20.8329 55.5866 20.7005 55.7006 20.6477C56.1203 20.4535 56.5574 20.3466 57.0127 20.3293C57.1385 20.3245 57.2476 20.4191 57.2697 20.5435L57.2757 20.5767C57.3014 20.7221 57.2003 20.8628 57.0537 20.8781Z" fill="#17213F"/>
<path d="M56.2224 23.3229C56.2224 23.3229 56.3004 22.9556 56.9034 22.763C57.5063 22.5703 58.1151 22.9599 58.1151 22.9599L57.3036 23.5202L56.2224 23.3229Z" fill="#EC9B66"/>
<path d="M59.3196 22.5719C59.3196 22.5719 59.3978 22.2046 60.0007 22.012C60.6035 21.8194 61.2123 22.2089 61.2123 22.2089L60.4009 22.7692L59.3196 22.5719Z" fill="#EC9B66"/>
<path d="M54.4838 19.1248C54.4838 19.1248 57.1412 19.1932 58.9118 18.8127C59.8235 18.6168 60.3707 18.4122 60.6869 18.26C60.9232 18.1463 61.0374 17.8752 60.9594 17.6243C60.768 17.0077 60.3633 15.7962 59.8886 14.9129C59.5992 14.3748 58.8642 14.2871 58.4479 14.7337C57.9252 15.2944 57.066 15.9699 55.846 16.1724C53.6485 16.5372 52.7458 16.6122 52.0713 18.2074C51.3968 19.8025 52.7953 21.7848 53.7017 23.2794L54.3129 23.1156C54.3127 23.115 54.2784 22.1336 54.4838 19.1248Z" fill="#17213F"/>
<path d="M53.2238 24.4825C53.6926 25.141 54.4111 25.4321 54.8289 25.1326C54.8702 25.1031 54.9069 25.0689 54.9392 25.0306C55.2345 24.681 55.1593 23.9916 54.7369 23.3979C54.2684 22.7393 53.5497 22.4482 53.1318 22.7477C52.7142 23.0473 52.7553 23.8239 53.2238 24.4825Z" fill="#E07B4D"/>
<path d="M54.306 22.9449L54.3111 22.9433C54.3111 22.9433 54.3095 22.9062 54.3109 22.8691C54.9548 23.2204 55.6967 23.7275 55.8513 24.2289L55.5454 24.3239C55.4729 24.0887 55.2004 23.8322 54.8583 23.5912C54.8212 23.5263 54.7821 23.4616 54.7372 23.3984C54.6084 23.2175 54.4608 23.0657 54.306 22.9449Z" fill="white"/>
<path d="M54.8528 25.1108C55.2329 25.5659 55.791 26.0784 56.4178 26.1437L56.3877 26.4393C56.3207 26.4325 56.2544 26.4212 56.1889 26.4064C55.5226 26.2535 54.9553 25.706 54.5742 25.2384C54.6668 25.2217 54.753 25.1873 54.8292 25.1327C54.8378 25.1263 54.8444 25.1176 54.8528 25.1108Z" fill="white"/>
<path d="M58.9744 24.4563C59.0315 24.4425 59.5378 24.3127 59.7118 24.0125C59.7734 23.9065 59.7879 23.7886 59.7543 23.6718C59.6417 23.2823 59.1532 23.2297 58.9313 23.2262L58.5518 22.1011L58.289 22.1903L58.7352 23.514L58.8426 23.5062C58.8483 23.506 59.4081 23.4732 59.4875 23.7491C59.5003 23.7936 59.4955 23.8315 59.4717 23.8727C59.3742 24.0408 59.0241 24.1578 58.9091 24.1856L58.9744 24.4563Z" fill="#E07B4D"/>
<path d="M55.1704 24.2065C55.1704 24.2065 59.1699 22.7546 61.4908 23.2002C61.4908 23.2002 62.44 27.1943 59.6134 27.5789C55.3357 28.1609 55.1704 24.2065 55.1704 24.2065Z" fill="white"/>
<path d="M62.7876 36.894H59.6625V37.464H62.7876V36.894Z" fill="#1A5789"/>
<path d="M51.9832 56.567C51.9832 56.567 54.4472 56.9879 55.155 54.4106" stroke="#1A5789" stroke-width="2" stroke-miterlimit="10"/>
<path d="M62.9679 56.567C62.9679 56.567 60.5039 56.9879 59.7961 54.4106" stroke="#1A5789" stroke-width="2" stroke-miterlimit="10"/>
<path d="M50.8099 38.1836C50.6941 38.8125 50.1477 44.8926 50.1477 44.8926C51.2806 45.3374 56.2219 46.4631 56.2219 46.4631C56.5439 47.5078 55.9004 48.8841 55.9004 48.8841C55.9004 48.8841 52.8657 48.7316 50.8481 48.2941C49.9198 48.0926 48.9985 47.8471 48.2868 47.5584C46.0279 46.6428 47.6449 38.4833 47.6449 38.4833L50.8099 38.1836Z" fill="#EC9B66"/>
<path d="M50.4826 31.2002C47.3574 34.5807 47.1819 39.9121 47.1819 39.9121C49.2266 41.8319 50.974 41.3337 50.974 41.3337L51.2801 39.5199" fill="#2666A5"/>
<path d="M75.5776 41.5079C75.708 41.2797 75.9189 40.9876 76.1242 40.6782C76.7891 39.6764 76.0836 39.4805 76.0836 39.4805L75.1818 40.5552L74.483 41.3555C73.8239 41.8124 72.7484 42.1228 72.7484 42.1228L73.1348 44.7182L74.137 44.4449C74.1715 44.4562 74.2038 44.4723 74.2411 44.4754L75.8575 44.5429H75.8585L78.0328 44.634C78.2963 44.6562 78.5416 44.6204 78.5638 44.3561L78.5679 44.3077C78.5901 44.0434 78.3527 43.9832 78.0895 43.961L77.1694 43.84L78.9478 43.9144C79.2112 43.9367 79.4566 43.9006 79.4788 43.6365L79.4829 43.5881C79.5051 43.324 79.2677 43.2637 79.0044 43.2414L78.8223 43.2175L79.8048 43.206C80.0689 43.214 80.3122 43.165 80.3202 42.9001L80.3217 42.8515C80.3297 42.5863 80.0894 42.539 79.8254 42.5309L78.4942 42.4279L79.4798 42.3128C79.7434 42.2932 79.9802 42.2192 79.9607 41.9547L79.957 41.9061C79.9375 41.6418 79.6937 41.6196 79.4301 41.6389L76.0899 41.7304C75.9037 41.6725 75.7345 41.5903 75.5776 41.5079Z" fill="#9FB8F7"/>
<path d="M58.0081 46.4081C58.1966 46.2254 58.4804 46.004 58.7638 45.7642C59.6808 44.9882 59.0578 44.6025 59.0578 44.6025L57.8929 45.3825L56.9995 45.9555C56.2394 46.21 54.7982 46.1311 54.7982 46.1311L54.8881 48.8171L55.8088 48.8257C55.8388 48.8461 55.8653 48.8707 55.9004 48.8842L57.434 49.4013L57.435 49.4017L59.4978 50.0974C59.7446 50.1923 59.9902 50.2265 60.0849 49.9791L60.1023 49.9336C60.197 49.686 59.9859 49.5618 59.7391 49.4668L58.889 49.0933L60.5762 49.6623C60.8231 49.7573 61.0686 49.7915 61.1635 49.5439L61.1809 49.4985C61.2756 49.2511 61.0645 49.1267 60.8177 49.0317L60.6493 48.9578L61.5961 49.2215C61.8475 49.3033 62.0947 49.3241 62.176 49.0717L62.191 49.0254C62.2723 48.773 62.0548 48.6603 61.8033 48.5785L60.5534 48.1074L61.5319 48.2726C61.7906 48.3276 62.0384 48.3227 62.0932 48.0633L62.1033 48.0158C62.1581 47.7564 61.9302 47.667 61.6715 47.6118L58.4383 46.7653C58.2757 46.6572 58.1358 46.5309 58.0081 46.4081Z" fill="#9FB8F7"/>
<path d="M95.1931 44.846C95.1931 44.846 96.8734 31.1096 99.5261 31.0541C102.179 30.9987 100.284 36.3022 100.284 36.3022L97.8029 44.2025C97.6579 44.6639 97.2249 44.9725 96.743 44.9577L95.1705 44.9095C95.1541 44.858 95.1931 44.846 95.1931 44.846Z" fill="#EC9B66"/>
<path d="M97.3122 41.9688L95.1741 42.7384C91.1781 43.4622 87.7866 43.8718 87.6515 43.9115C87.5164 43.9515 89.5114 45.4005 89.3761 45.4405C89.2876 45.4666 94.363 45.3385 97.1566 44.792C98.1112 44.6051 97.806 43.5834 97.1648 42.9166L97.3122 41.9688Z" fill="#EC9B66"/>
<path d="M98.2346 48.9823L97.7574 51.0186L97.2169 67.0685L97.1058 84.534L98.8768 84.3519L100.665 65.6957L101.787 47.4561L98.2346 48.9823Z" fill="#FBBA8F"/>
<path d="M101.17 53.3875L102.079 53.0249L102.017 54.9953L101.178 54.5112C101.168 53.7974 101.17 53.3875 101.17 53.3875Z" fill="#5D97B7"/>
<path d="M97.1196 66.7011C97.1196 66.7011 97.1186 66.5431 97.0919 66.2584C96.1664 56.3642 96.711 52.5606 97.7978 47.4522L97.8674 47.0781L101.854 47.4055C101.854 47.4055 103.697 49.2172 103.643 51.592C103.633 52.0201 103.548 52.8006 103.415 53.7904L102.365 52.9108L102.079 53.0251L102.08 52.9909C102.08 52.9909 101.337 52.6683 100.893 52.2038C100.893 52.2038 100.884 53.2241 101.169 54.5063L101.178 54.5114C101.204 56.3586 101.307 60.245 101.708 64.3595C101.419 66.018 101.215 67.1493 101.215 67.1493C101.215 67.1493 101.686 69.3482 101.517 71.2392C101.347 73.1305 99.0892 83.6829 99.0892 83.6829C99.0892 83.6829 98.4686 84.1074 97.0498 83.5601C97.0502 83.5601 96.6617 72.8287 97.1196 66.7011Z" fill="white"/>
<path d="M100.894 52.2036C101.337 52.6681 102.08 52.9907 102.08 52.9907L102.079 53.0249L101.17 53.3875C101.17 53.3875 101.168 53.7976 101.178 54.5114L101.17 54.5063C100.884 53.2237 100.894 52.2036 100.894 52.2036Z" fill="#E2EAED"/>
<path d="M101.17 53.3873L102.366 52.9106L103.415 53.7903C103.026 56.6837 102.229 61.3752 101.709 64.3593C101.152 58.655 101.17 53.3873 101.17 53.3873Z" fill="#E2EAED"/>
<path d="M102.365 47.8184L104.397 70.5484L106.154 83.7215L107.784 83.8284L107.618 70.1339L106.993 49.3634L102.365 47.8184Z" fill="#FBBA8F"/>
<path d="M106.857 46.3164C106.857 46.3164 108.134 48.5291 108.663 51.6421C109.431 56.1576 107.927 66.4828 107.927 66.4828C107.927 66.4828 108.677 68.4429 108.753 70.3401C108.829 72.2374 107.906 83.1303 107.906 83.1303C107.906 83.1303 107.461 83.5322 105.984 83.1741C105.984 83.1741 104.376 72.6764 104.039 66.5409C104.039 66.5409 102.593 59.272 102.158 53.8739L101.517 46.6479L106.857 46.3164Z" fill="white"/>
<path d="M108.24 84.2562C108.231 84.1878 108.243 83.8557 108.265 83.4054C108.277 83.1599 108.082 82.9526 107.837 82.9526H105.996C105.743 82.9526 105.544 83.1712 105.568 83.424L105.633 84.1046C105.276 84.2953 105.024 84.7623 105.025 85.3113L105.027 86.1156H108.65L108.648 85.3113C108.647 84.8756 108.485 84.4923 108.24 84.2562Z" fill="#003862"/>
<path d="M99.5452 84.6719C99.5037 84.4024 99.408 83.9183 99.3503 83.6326C99.3259 83.5113 99.2047 83.4355 99.0856 83.468C98.8495 83.5325 98.4631 83.6221 98.1386 83.6221C97.6321 83.6221 97.2247 83.4035 96.9073 83.4795C96.59 83.5556 96.4438 84.2887 96.4438 84.2887C95.743 84.561 94.7757 84.545 94.7757 84.545C94.7757 84.545 94.6773 84.5491 94.5276 84.5619C94.6648 84.7668 94.7999 85.0489 94.8806 85.4223H99.5694C99.5758 85.1566 99.5739 84.8581 99.5452 84.6719Z" fill="#003862"/>
<path d="M94.8806 85.4225C94.7999 85.0488 94.6648 84.7668 94.5276 84.562C94.3036 84.5812 93.962 84.6207 93.64 84.7004C93.1033 84.8335 93.0018 85.4225 93.0018 85.4225L92.9946 85.9879H94.9506H99.5448C99.5448 85.9879 99.5622 85.7265 99.5692 85.4225H94.8806Z" fill="white"/>
<path d="M99.6951 86.1155H92.8782L92.8685 85.9987C92.7729 84.8385 93.223 84.5812 94.2047 84.4688L94.2334 84.7217C93.2975 84.8286 93.0663 85.048 93.1131 85.8609H99.4439L99.4456 85.6489L99.6992 85.6514L99.6951 86.1155Z" fill="#003C61"/>
<path d="M104.864 31.5359L103.149 31.4807C102.856 31.4713 102.627 31.2259 102.636 30.9324L102.774 26.606L105.549 26.6949L105.411 31.0214C105.402 31.3151 105.157 31.5454 104.864 31.5359Z" fill="#EC9B66"/>
<path d="M102.639 28.4353C103.991 28.2989 105.365 28.61 105.43 29.6793C105.43 29.6793 105.582 27.2693 105.671 26.5483C105.671 26.5483 104.139 28.5653 102.639 28.4353Z" fill="#E07B4D"/>
<path d="M106.518 45.5837C106.518 45.5849 106.517 45.5847 106.517 45.5862C106.49 45.538 106.504 45.5604 106.518 45.5837Z" fill="#2C4E56"/>
<path d="M102.563 28.4798C102.563 28.4798 101.903 24.8793 102.199 23.8217L102.563 19.5163C102.859 18.4587 103.674 17.4996 104.669 17.6063L107.109 17.8681C108.104 17.9748 108.889 19.175 108.593 20.2326L106.631 26.3895C106.335 27.4471 105.122 28.7307 102.563 28.4798Z" fill="#E07B4D"/>
<path d="M102.526 28.4761L102.46 28.4747C101.024 28.3206 99.753 26.9828 99.9065 25.5418L100.445 20.4862C100.582 19.2016 101.742 18.2628 103.023 18.4L106.234 18.7445C106.601 18.7838 107.319 19.1688 107.28 19.5376L106.325 25.1741C106.114 27.1583 104.504 28.6883 102.526 28.4761Z" fill="#EC9B66"/>
<path d="M103.409 26.2045C103.168 26.6635 102.66 26.9434 102.126 26.8808C101.591 26.8182 101.378 26.4245 101.269 25.9336C101.996 26.2006 102.626 26.229 103.409 26.2045Z" fill="#D31E1E"/>
<path d="M103.407 26.2031C103.013 26.0515 102.441 25.8542 102.042 26.021C101.882 25.7928 101.487 25.8826 101.267 25.9333C101.519 26.0256 101.718 26.2707 101.985 26.3358C102.454 26.4495 102.957 26.3527 103.407 26.2031Z" fill="#E82323"/>
<path d="M105.043 20.346H105.044C104.435 19.1881 103.99 18.2317 103.99 18.2317L105.704 17.3467C112.406 18.3023 106.692 26.2749 106.692 26.2749C106.761 25.5706 106.902 24.8846 106.796 24.0921C105.302 22.4374 105.043 20.346 105.043 20.346Z" fill="#603E1D"/>
<path d="M108.232 25.1366C107.826 25.7904 107.161 26.1099 106.746 25.8504C106.705 25.8248 106.668 25.7945 106.635 25.7601C106.334 25.4456 106.364 24.786 106.73 24.1966C107.136 23.5428 107.802 23.2232 108.216 23.4828C108.631 23.7424 108.638 24.4827 108.232 25.1366Z" fill="#E07B4D"/>
<path d="M101.626 23.4994C101.626 23.4994 101.996 22.6068 101.435 22.4892C100.971 22.3917 100.826 23.2448 100.879 23.4522C100.879 23.4522 101.221 23.2697 101.626 23.4994Z" fill="#17213F"/>
<path d="M103.824 23.91C103.824 23.91 103.847 22.9434 104.407 23.0641C104.87 23.1643 104.658 24.0029 104.526 24.1708C104.526 24.1708 104.301 23.835 103.824 23.91Z" fill="#17213F"/>
<path d="M105.794 30.1649C105.481 29.9267 104.602 29.6598 104.483 29.6958C104.373 29.6381 103.461 29.7356 103.108 29.9105C100.965 30.9757 98.1475 30.9691 97.9653 32.8812C97.9653 32.8812 97.4933 34.7686 98.5575 34.8693L104.458 39.2042L109.34 35.8902C110.404 35.991 110.574 34.6246 110.574 34.6246C110.752 32.7121 107.701 31.6137 105.794 30.1649Z" fill="#EC9B66"/>
<path d="M108.405 38.0872L107.388 38.0452C106.753 36.9233 106.714 34.0801 106.714 34.0801C106.714 34.0801 104.823 35.3853 102.63 35.3853C100.437 35.3853 100.309 34.0801 100.309 34.0801C100.309 34.0801 96.1291 38.1846 98.061 40.698C99.1822 42.1565 98.0235 46.5474 97.7235 48.106C98.5791 48.3965 99.9316 48.4772 100.795 48.4772C103.728 48.4772 106.579 47.5381 107.311 47.2284L106.413 44.4153L108.405 38.0872Z" fill="#1A5789"/>
<path d="M98.4052 39.9253C98.4052 39.9253 99.1793 40.7334 101.125 40.3927C101.125 40.3927 100.052 41.2725 98.6984 40.8892L98.4052 39.9253Z" fill="#003C61"/>
<path d="M102.783 40.2399C102.783 40.2399 105.369 41.1245 106.797 40.0103L106.094 41.1317C106.094 41.1317 104.07 41.375 102.783 40.2399Z" fill="#003C61"/>
<path d="M100.94 48.4439C100.94 48.4439 104.621 45.145 105.945 41.0549C107.293 39.7762 107.367 37.3753 107.832 35.6138L108.405 38.102L106.413 44.4153L107.31 47.2285C107.31 47.2285 104.441 48.7152 100.94 48.4439Z" fill="#003C61"/>
<path d="M110.224 47.28C110.224 47.28 112.156 33.6531 109.598 32.9434C107.041 32.2338 107.575 37.8423 107.575 37.8423L108.13 46.8219L109.991 48.0679C110.02 48.0222 110.224 47.28 110.224 47.28Z" fill="#EC9B66"/>
<path d="M106.416 34.5792C106.416 34.5792 106.899 32.6498 107.378 31.1357C107.378 31.1357 107.613 31.1357 107.786 31.2896C107.786 31.2896 107.084 33.3379 106.768 34.9902C106.768 34.9902 106.518 34.9313 106.416 34.5792Z" fill="#1A5789"/>
<path d="M99.6813 34.5729C99.6813 34.5729 99.7846 32.6048 99.9778 30.9185C99.9778 30.9185 100.199 30.7434 100.424 30.8402C100.424 30.8402 100.11 33.1328 100.103 34.9299C100.103 34.9299 99.847 34.9205 99.6813 34.5729Z" fill="#1A5789"/>
<path d="M107.529 39.6221C107.529 39.6221 110.052 39.7453 111.286 39.2041C111.286 39.2041 112.258 32.0901 107.378 31.1357L106.679 34.2329V35.7135L107.529 39.6221Z" fill="#1A5789"/>
<path d="M96.342 38.573C95.9742 38.4262 95.6083 38.2756 95.29 38.1361C95.29 38.1361 96.342 31.9841 99.5154 31.0083C96.9978 33.2747 96.4317 37.6883 96.342 38.573Z" fill="#003C61"/>
<path d="M100.393 33.8054L100.003 35.0784L98.4764 39.3865C98.4764 39.3865 97.4013 38.9957 96.3422 38.5728C96.4319 37.688 96.9978 33.2745 99.5156 31.0081C100.06 30.7596 100.672 30.5883 101.362 30.5229L100.393 33.8054Z" fill="#1A5789"/>
<path d="M102.379 25.1441C102.338 25.1343 101.976 25.0416 101.852 24.8267C101.808 24.7509 101.797 24.6666 101.821 24.583C101.902 24.3045 102.251 24.2668 102.41 24.2643L102.681 23.4595L102.87 23.5233L102.55 24.4703L102.473 24.4648C102.469 24.4645 102.069 24.4411 102.012 24.6384C102.003 24.6701 102.006 24.6973 102.023 24.7268C102.093 24.8471 102.343 24.9307 102.426 24.9507L102.379 25.1441Z" fill="#E07B4D"/>
<path d="M107.075 23.767L107.07 23.7666C106.53 24.2439 105.915 24.8209 105.877 25.332L106.191 25.3542C106.209 25.1143 106.413 24.8098 106.688 24.5045C106.709 24.4345 106.732 24.3642 106.762 24.2942C106.845 24.0937 106.953 23.9164 107.075 23.767Z" fill="white"/>
<path d="M106.745 25.8325C106.397 26.297 105.877 26.8275 105.265 26.9258L105.311 27.2123C105.377 27.202 105.441 27.1874 105.504 27.1693C106.15 26.9834 106.677 26.4184 107.026 25.9415C106.934 25.9304 106.847 25.9015 106.769 25.8525C106.76 25.8469 106.754 25.8387 106.745 25.8325Z" fill="white"/>
<path d="M106.257 25.1925C106.257 25.1925 102.326 23.7748 100.045 24.2099C100.045 24.2099 99.1115 28.1099 101.89 28.4852C106.095 29.0536 106.257 25.1925 106.257 25.1925Z" fill="white"/>
<path d="M106.929 25.73C106.929 25.73 106.438 26.9396 106.976 26.9396C107.514 26.9396 106.929 25.73 106.929 25.73Z" fill="#1A5789"/>
<path d="M107.96 44.0742L108.13 46.8216C107.703 50.8728 107.261 53.8438 107.261 53.9851C107.262 54.1264 109.012 53.3102 109.013 53.4518C109.013 53.5745 110.075 47.3768 110.4 45.893C110.435 45.7313 110.433 45.5735 110.295 45.4826L107.96 44.0742Z" fill="#EC9B66"/>
<path d="M106.474 53.7886C106.27 53.8471 106.002 53.9565 105.72 54.0582C104.81 54.3876 104.792 53.7954 104.792 53.7954L105.806 53.2938L106.566 52.8989C107.05 52.4687 107.551 51.8555 107.551 51.8555L109.191 52.4949L109.058 53.2272C109.061 53.2565 109.054 53.2804 109.049 53.3104L108.79 54.5942L108.79 54.5951L108.442 56.322C108.408 56.5333 108.333 56.7193 108.122 56.6858L108.084 56.6796C107.873 56.646 107.872 56.4478 107.905 56.2365L107.988 55.4899L107.703 56.9025C107.67 57.1138 107.595 57.2998 107.384 57.2663L107.345 57.2601C107.135 57.2265 107.133 57.0283 107.167 56.817L107.183 56.6693L106.985 57.4395C106.94 57.6488 106.855 57.8305 106.646 57.7856L106.608 57.7774C106.399 57.7327 106.409 57.5347 106.453 57.3254L106.63 56.2589L106.35 57.0114C106.284 57.215 106.18 57.3868 105.977 57.3204L105.94 57.3083C105.737 57.242 105.767 57.0461 105.833 56.8425L106.549 54.2344C106.539 54.0768 106.508 53.9278 106.474 53.7886Z" fill="#9FB8F7"/>
<path d="M105.043 20.3461C105.043 20.3461 103.12 22.0485 100.341 21.4662C100.341 21.4662 100.111 16.6499 105.705 17.3468L105.043 20.3461Z" fill="#603E1D"/>
<path d="M98.9778 45.6958H100.578V45.3277H98.9778V45.6958Z" fill="#003C61"/>
<path d="M104.182 45.6958H105.782V45.3277H104.182V45.6958Z" fill="#02354F"/>
<path d="M109.025 21.8248L100.799 19.8767C100.668 19.8456 100.586 19.7137 100.617 19.5819L100.751 19.0139C101.131 17.4014 102.741 16.4029 104.348 16.7836L106.664 17.332C108.584 17.7866 109.773 19.7166 109.319 21.6427C109.288 21.7743 109.157 21.8559 109.025 21.8248Z" fill="#1A5789"/>
<path d="M109.724 20.4384C109.542 20.4384 109.334 20.3943 109.118 20.2894L109.181 20.1596C109.592 20.3597 110.001 20.3131 110.145 20.1555C110.21 20.0844 110.213 19.9992 110.155 19.9017C110.119 19.8416 110.07 19.8061 110.004 19.7938C109.785 19.7536 109.442 19.9736 109.329 20.0622L109.24 19.9485C109.259 19.9337 109.701 19.5898 110.03 19.6521C110.138 19.6722 110.221 19.7312 110.279 19.8278C110.369 19.9796 110.359 20.1347 110.251 20.253C110.149 20.3644 109.959 20.4384 109.724 20.4384Z" fill="#1A5789"/>
<path d="M109.763 21.3153C109.744 21.3153 109.724 21.3139 109.705 21.3106C109.441 21.2684 109.122 20.9287 109.05 20.3826L109.193 20.3636C109.252 20.8172 109.517 21.1345 109.727 21.1683C109.823 21.1831 109.895 21.1392 109.944 21.037C109.975 20.9738 109.977 20.9128 109.95 20.851C109.864 20.6444 109.491 20.4796 109.355 20.4335L109.401 20.2969C109.423 20.3045 109.954 20.4866 110.083 20.795C110.125 20.8959 110.122 20.9983 110.074 21.0997C110.007 21.2389 109.896 21.3153 109.763 21.3153Z" fill="#1A5789"/>
<path d="M101.362 30.5229C101.362 30.5229 102.343 35.2846 107.378 31.1358L107.529 34.7904L103.409 37.5852C103.409 37.5852 99.0969 37.3222 99.0708 37.0593C99.0446 36.7963 99.5076 33.7983 99.4464 33.7195C99.3852 33.6406 99.5117 32.0346 99.894 31.72C100.276 31.4052 101.362 30.5229 101.362 30.5229Z" fill="#1A5789"/>
<path d="M101.362 30.5229L100.727 30.6165C100.727 30.6165 100.94 33.43 103.407 33.6667C106.397 33.9535 107.921 31.2753 107.921 31.2753L107.378 31.1358C107.378 31.1358 105.311 32.9193 103.646 32.8262C101.98 32.7331 101.362 30.5229 101.362 30.5229Z" fill="#003C61"/>
<path d="M87.5513 43.2948C87.3841 43.1323 87.1326 42.9349 86.8815 42.7215C86.0688 42.0306 86.6225 41.6895 86.6225 41.6895L87.6554 42.3841L88.4475 42.8948C89.1221 43.1222 90.2303 43.5426 90.2303 43.5426L90.4253 45.4176L89.4995 45.4457C89.4728 45.4638 89.4494 45.4854 89.4182 45.4974L88.0554 45.9537L88.0545 45.9539L86.2215 46.5677C86.0022 46.6516 85.784 46.6815 85.7004 46.4614L85.685 46.4211C85.6014 46.2011 85.7891 46.0911 86.0084 46.0072L86.7638 45.6772L85.2645 46.1794C85.0452 46.2633 84.8269 46.2931 84.7433 46.0731L84.7279 46.0328C84.6444 45.8127 84.832 45.7027 85.0513 45.6189L85.2008 45.5536L84.3596 45.786C84.1362 45.8581 83.9167 45.8762 83.8448 45.6521L83.8317 45.6109C83.7598 45.3867 83.9532 45.2868 84.1766 45.2149L85.2873 44.7988L84.4181 44.9436C84.1883 44.992 83.9682 44.9871 83.9199 44.7568L83.9111 44.7146C83.8629 44.4843 84.0655 44.4052 84.2953 44.3567L87.1679 43.611C87.3133 43.5156 87.4377 43.4038 87.5513 43.2948Z" fill="#9FB8F7"/>
<path d="M81.0077 42.4582L84.6271 49.6861C84.7289 49.8894 84.9757 49.9714 85.1784 49.8692L90.0888 47.3944C90.2914 47.2922 90.3731 47.0446 90.2713 46.8412L86.6519 39.6133C86.55 39.41 86.3032 39.328 86.1006 39.4302L81.1902 41.9051C80.9876 42.007 80.9058 42.2549 81.0077 42.4582Z" fill="#00273D"/>
<path d="M81.6916 42.7509L84.801 48.9601C84.9029 49.1635 85.1497 49.2455 85.3523 49.1433L89.4048 47.1008C89.6074 46.9986 89.6892 46.751 89.5873 46.5477L86.4782 40.3384C86.3763 40.1351 86.1295 40.0531 85.9268 40.1553L81.8744 42.1978C81.6715 42.3 81.5898 42.5476 81.6916 42.7509Z" fill="white"/>
<path d="M82.8393 42.1573L82.406 41.2921L84.7829 40.0942L85.2162 40.9594C85.2538 41.0346 85.2236 41.1261 85.1486 41.164L83.0432 42.2251C82.9682 42.2628 82.877 42.2325 82.8393 42.1573Z" fill="#CCCDCE"/>
<path d="M82.7639 41.1118L82.606 40.7966C82.5715 40.7278 82.5992 40.644 82.6678 40.6093L84.0809 39.8972C84.1495 39.8626 84.2331 39.8904 84.2676 39.9592L84.4255 40.2744L82.7639 41.1118Z" fill="#CCCDCE"/>
<path d="M133.284 53.3656C133.109 53.9519 132.894 54.5295 132.634 55.0903C132.4 55.247 132.197 55.4021 132.071 55.5371L131.249 56.065L130.151 56.7409C130.151 56.7409 130.232 57.4119 131.232 56.9422C131.541 56.7972 131.835 56.6447 132.06 56.557C132.113 56.7115 132.164 56.8771 132.191 57.0555L131.65 60.0923C131.596 60.3303 131.583 60.5558 131.82 60.61L131.863 60.6199C132.1 60.6739 132.2 60.4681 132.254 60.23L132.494 59.346L132.404 60.5754C132.375 60.8179 132.385 61.0436 132.627 61.0727L132.671 61.0781C132.913 61.1069 132.991 60.8918 133.019 60.6494L133.165 59.7539L133.162 59.9234C133.146 60.1669 133.168 60.3919 133.41 60.4079L133.455 60.4108C133.698 60.4269 133.764 60.2077 133.78 59.9642L133.956 58.3302L133.94 59.1868C133.924 59.4303 133.946 59.6552 134.189 59.6713L134.233 59.6742C134.476 59.6902 134.542 59.471 134.558 59.2276L134.774 57.23L134.774 57.2291L134.935 55.7441C134.937 55.7093 134.927 55.6778 134.921 55.6448L134.961 55.211C135.083 54.9728 135.254 54.6138 135.444 54.1486C134.625 53.3555 133.7 53.3281 133.284 53.3656Z" fill="#9FB8F7"/>
</svg>
